<svg xmlns="http://www.w3.org/2000/svg" viewBox="0 0 841.55 476.45"><defs><style>.cls-1{isolation:isolate;}.cls-2{fill:#60d1ef;}.cls-3{fill:#80ce25;}.cls-4{fill:#fbc800;}.cls-5{fill:#ff7f00;}.cls-6{fill:#f5f5f5;}.cls-7{fill:#ececec;}.cls-8{fill:#fa9505;}.cls-10,.cls-9{fill:none;stroke-linecap:round;stroke-linejoin:round;}.cls-9{stroke:#d9d9d9;stroke-width:5px;}.cls-10{stroke:#fff;stroke-width:10px;opacity:0.7;}.cls-11,.cls-17{fill:#bfa77f;}.cls-12{fill:#f0dba0;}.cls-13{fill:#eec892;}.cls-14{fill:#573417;}.cls-15{fill:#f0e1ab;}.cls-16{fill:#fff;}.cls-17{opacity:0.17;mix-blend-mode:multiply;}.cls-18{fill:#efd195;}.cls-19{fill:#605440;stroke:#605440;stroke-miterlimit:10;opacity:0.14;}.cls-20{fill:#ffd173;}.cls-21{fill:#ffc44d;}</style></defs><title>graphic-feature-not-ready</title><g class="cls-1"><g id="Layer_1" data-name="Layer 1"><path d="M29.63,85.6l-7-31.71-7,31.71H9.07L1.38,47.73H6.49L12.59,81,19.9,47.73h5.55L32.92,81l6.32-33.31H44L36.33,85.6Z"/><path d="M70.74,72.85H52.27q.33,4.78,2.42,7a7,7,0,0,0,5.39,2.25,11.77,11.77,0,0,0,3.85-.6,15.52,15.52,0,0,0,3.68-1.92l2.2,3a16,16,0,0,1-10.11,3.63q-6,0-9.43-4T46.88,71.42a20.62,20.62,0,0,1,1.46-8A12.55,12.55,0,0,1,52.52,58a10.59,10.59,0,0,1,6.4-2q5.77,0,8.85,3.79t3.08,10.5Q70.85,71.53,70.74,72.85Zm-4.89-4.07q0-4.29-1.7-6.54A6,6,0,0,0,59,60q-6.21,0-6.76,9.13H65.85Z"/><path d="M83.05,45.23a3.3,3.3,0,0,1,1,2.45A5,5,0,0,1,83.9,49a12.51,12.51,0,0,1-.74,1.84l-3.68,7.8h-3.3l2.2-8.24A3.34,3.34,0,0,1,77,47.67,3.25,3.25,0,0,1,78,45.23a3.62,3.62,0,0,1,5,0Z"/><path d="M107.18,56.3l-.93,4.95a10.44,10.44,0,0,0-2.53-.33,5.38,5.38,0,0,0-4.34,2,14.69,14.69,0,0,0-2.58,6.16V85.6H91.74v-29h4.34l.5,5.88a11,11,0,0,1,3.13-4.89A7,7,0,0,1,104.32,56,11.76,11.76,0,0,1,107.18,56.3Z"/><path d="M134.17,72.85H115.7q.33,4.78,2.42,7a7,7,0,0,0,5.39,2.25,11.76,11.76,0,0,0,3.85-.6A15.52,15.52,0,0,0,131,79.61l2.2,3a16,16,0,0,1-10.11,3.63q-6,0-9.43-4t-3.38-10.88a20.61,20.61,0,0,1,1.46-8A12.55,12.55,0,0,1,115.95,58a10.59,10.59,0,0,1,6.4-2q5.77,0,8.85,3.79t3.08,10.5Q134.28,71.53,134.17,72.85Zm-4.89-4.07q0-4.29-1.7-6.54A6,6,0,0,0,122.46,60q-6.21,0-6.76,9.13h13.58Z"/><path d="M170.39,56.8a16,16,0,0,1,4.51,2.47l-2.2,3.35a15.19,15.19,0,0,0-3.71-2,11.22,11.22,0,0,0-3.77-.63,6.62,6.62,0,0,0-3.9,1,3.44,3.44,0,0,0-.08,5.52,15.58,15.58,0,0,0,4.86,1.92,17.4,17.4,0,0,1,7.23,3.3,7.2,7.2,0,0,1,2.39,5.72A7.41,7.41,0,0,1,172.4,84a14.11,14.11,0,0,1-8.11,2.25,16,16,0,0,1-10.94-3.79l2.8-3.19a12,12,0,0,0,8,2.91A7.91,7.91,0,0,0,168.69,81a3.55,3.55,0,0,0,1.7-3.08,4.65,4.65,0,0,0-.6-2.5,4.74,4.74,0,0,0-2.06-1.65,27.23,27.23,0,0,0-4.37-1.46q-4.62-1.21-6.68-3.27a7,7,0,0,1-2.06-5.19A6.65,6.65,0,0,1,156,59.82,8.83,8.83,0,0,1,159.7,57a13.57,13.57,0,0,1,5.36-1A16.12,16.12,0,0,1,170.39,56.8Z"/><path d="M191,86.26a7.65,7.65,0,0,1-5.74-2.12A8.43,8.43,0,0,1,183.2,78V60.54h-5.06v-3.9h5.06V50.09l5.06-.6v7.15h6.87l-.55,3.9h-6.32V77.8a5.32,5.32,0,0,0,.8,3.27,3.18,3.18,0,0,0,2.67,1,7.34,7.34,0,0,0,3.85-1.26l1.92,3.46A11.13,11.13,0,0,1,191,86.26Z"/><path d="M207.77,43.72a3.35,3.35,0,0,1,1,2.47,3.26,3.26,0,0,1-1,2.45,3.55,3.55,0,0,1-2.58,1,3.47,3.47,0,0,1-2.53-1,3.26,3.26,0,0,1-1-2.45,3.35,3.35,0,0,1,1-2.47,3.42,3.42,0,0,1,2.53-1A3.49,3.49,0,0,1,207.77,43.72ZM202.71,85.6v-29h5.06v29Z"/><path d="M223.41,81.53a1.64,1.64,0,0,0,1.4.55,5,5,0,0,0,1.87-.33L228,85.27a9.68,9.68,0,0,1-4.29,1,5.52,5.52,0,0,1-4.29-1.62,6.81,6.81,0,0,1-1.48-4.75V45l5.06-.6v35.4A3,3,0,0,0,223.41,81.53Z"/><path d="M239.51,81.53a1.64,1.64,0,0,0,1.4.55,5,5,0,0,0,1.87-.33l1.32,3.52a9.67,9.67,0,0,1-4.29,1,5.52,5.52,0,0,1-4.29-1.62A6.81,6.81,0,0,1,234,79.88V45l5.06-.6v35.4A3,3,0,0,0,239.51,81.53Z"/><path d="M286.09,60q2.91,4,2.91,11.13A21.28,21.28,0,0,1,287.63,79a11.91,11.91,0,0,1-4,5.33,10,10,0,0,1-6,1.9,9.57,9.57,0,0,1-7.7-3.85l-.49,3.19H265V45l5.06-.6V60.26A9.69,9.69,0,0,1,278.23,56,9.24,9.24,0,0,1,286.09,60Zm-4.42,19.57q1.9-2.72,1.9-8.44,0-5.88-1.76-8.49a5.68,5.68,0,0,0-5-2.61Q273,60,270,64.49V78.34a9,9,0,0,0,2.83,2.86,6.59,6.59,0,0,0,3.54,1A6.05,6.05,0,0,0,281.67,79.53Z"/><path d="M314.84,85.6l-.38-4.51A11,11,0,0,1,310.66,85a10.29,10.29,0,0,1-5.22,1.24A7.7,7.7,0,0,1,299.5,84a9.26,9.26,0,0,1-2.14-6.54V56.63h5.06V76.86q0,3,1,4.2a4.22,4.22,0,0,0,3.41,1.24q4.23,0,7.25-5V56.63h5.06v29Z"/><path d="M334.68,43.72a3.35,3.35,0,0,1,1,2.47,3.26,3.26,0,0,1-1,2.45,3.55,3.55,0,0,1-2.58,1,3.47,3.47,0,0,1-2.53-1,3.26,3.26,0,0,1-1-2.45,3.35,3.35,0,0,1,1-2.47,3.42,3.42,0,0,1,2.53-1A3.49,3.49,0,0,1,334.68,43.72ZM329.63,85.6v-29h5.06v29Z"/><path d="M350.32,81.53a1.64,1.64,0,0,0,1.4.55,5,5,0,0,0,1.87-.33l1.32,3.52a9.68,9.68,0,0,1-4.29,1,5.52,5.52,0,0,1-4.29-1.62,6.81,6.81,0,0,1-1.48-4.75V45l5.06-.6v35.4A3,3,0,0,0,350.32,81.53Z"/><path d="M383.11,85.6h-4.45l-.49-4A10.49,10.49,0,0,1,374.59,85a10,10,0,0,1-12.83-2.83q-2.89-4.07-2.88-10.94a21.31,21.31,0,0,1,1.37-7.92,12.24,12.24,0,0,1,4-5.41,9.75,9.75,0,0,1,6-2A10.4,10.4,0,0,1,378,59.55V44.38l5.06.6Zm-8.25-4.42A12.35,12.35,0,0,0,378,78V63.78a11,11,0,0,0-3-2.83,7,7,0,0,0-3.66-1,5.86,5.86,0,0,0-5.19,2.8q-1.84,2.8-1.84,8.35T366,79.5a5.43,5.43,0,0,0,4.89,2.75A7.1,7.1,0,0,0,374.86,81.18Z"/><path d="M398.61,43.72a3.36,3.36,0,0,1,1,2.47,3.27,3.27,0,0,1-1,2.45,3.55,3.55,0,0,1-2.58,1,3.47,3.47,0,0,1-2.53-1,3.26,3.26,0,0,1-1-2.45,3.36,3.36,0,0,1,1-2.47,3.42,3.42,0,0,1,2.53-1A3.5,3.5,0,0,1,398.61,43.72ZM393.55,85.6v-29h5.06v29Z"/><path d="M428.87,58.34a9.08,9.08,0,0,1,2.23,6.49V85.6H426V65.54q0-3.08-1.15-4.34a4.39,4.39,0,0,0-3.41-1.26,6.59,6.59,0,0,0-4.07,1.32,13.71,13.71,0,0,0-3.3,3.79V85.6h-5.06v-29h4.34l.44,4.29a11.44,11.44,0,0,1,3.82-3.63,9.87,9.87,0,0,1,5-1.32A8.09,8.09,0,0,1,428.87,58.34Z"/><path d="M461,58.67q-2,.17-4.84.17,5.11,2.31,5.11,7.31a9.23,9.23,0,0,1-3,7.09A11.42,11.42,0,0,1,450.22,76a11.9,11.9,0,0,1-3.68-.55,3.11,3.11,0,0,0-1,1.18,3.25,3.25,0,0,0-.38,1.51q0,2.36,3.79,2.36h4.62a12.17,12.17,0,0,1,5.17,1,8.35,8.35,0,0,1,3.49,2.86,7.15,7.15,0,0,1,1.24,4.12A7.35,7.35,0,0,1,459.95,95q-3.46,2.28-10.11,2.28a22.88,22.88,0,0,1-7.39-1,7,7,0,0,1-3.87-2.89,9.51,9.51,0,0,1-1.15-4.95H442a5.06,5.06,0,0,0,.66,2.78A4.12,4.12,0,0,0,445,92.83a17.31,17.31,0,0,0,4.84.52q4.56,0,6.51-1.13a3.66,3.66,0,0,0,2-3.38,3.48,3.48,0,0,0-1.54-3.08,7.57,7.57,0,0,0-4.29-1h-4.56a8.57,8.57,0,0,1-5.58-1.57,4.89,4.89,0,0,1-1.9-3.93,5.11,5.11,0,0,1,.82-2.75,8.07,8.07,0,0,1,2.36-2.36,8.26,8.26,0,0,1-4.89-8,9.58,9.58,0,0,1,1.46-5.22,9.93,9.93,0,0,1,4-3.6A12.44,12.44,0,0,1,449.89,56a40,40,0,0,0,5.72-.25,19.75,19.75,0,0,0,3.82-.82q1.51-.52,3.71-1.51L464.62,58A15.51,15.51,0,0,1,461,58.67Zm-15.53,2.72a6.86,6.86,0,0,0-1.57,4.7,6.87,6.87,0,0,0,1.59,4.75A5.73,5.73,0,0,0,450,72.63a5.8,5.8,0,0,0,4.53-1.73A7,7,0,0,0,456.1,66q0-6.43-6.21-6.43A5.58,5.58,0,0,0,445.46,61.39Z"/><path d="M102.07,152.22a7.65,7.65,0,0,1-5.74-2.12A8.43,8.43,0,0,1,94.27,144V126.49H89.21v-3.9h5.06v-6.54l5.06-.6v7.15h6.87l-.55,3.9H99.32v17.26a5.32,5.32,0,0,0,.8,3.27,3.19,3.19,0,0,0,2.67,1,7.34,7.34,0,0,0,3.85-1.26l1.92,3.46A11.12,11.12,0,0,1,102.07,152.22Z"/><path d="M133.59,124.3a9.08,9.08,0,0,1,2.23,6.49v20.78h-5.06V131.5q0-3.08-1.18-4.34a4.48,4.48,0,0,0-3.44-1.26,6.51,6.51,0,0,0-4,1.32,13.94,13.94,0,0,0-3.3,3.74v20.61h-5.06V111l5.06-.55v16.16a10.25,10.25,0,0,1,8.57-4.67A8.09,8.09,0,0,1,133.59,124.3Z"/><path d="M151,109.68a3.36,3.36,0,0,1,1,2.47,3.26,3.26,0,0,1-1,2.45,3.55,3.55,0,0,1-2.58,1,3.47,3.47,0,0,1-2.53-1,3.26,3.26,0,0,1-1-2.45,3.35,3.35,0,0,1,1-2.47,3.42,3.42,0,0,1,2.53-1A3.5,3.5,0,0,1,151,109.68ZM146,151.56v-29H151v29Z"/><path d="M174.68,122.76a16,16,0,0,1,4.51,2.47l-2.2,3.35a15.17,15.17,0,0,0-3.71-2,11.21,11.21,0,0,0-3.76-.63,6.62,6.62,0,0,0-3.9,1,3.44,3.44,0,0,0-.08,5.52,15.58,15.58,0,0,0,4.86,1.92,17.4,17.4,0,0,1,7.23,3.3,7.2,7.2,0,0,1,2.39,5.72,7.41,7.41,0,0,1-3.33,6.54,14.11,14.11,0,0,1-8.11,2.25,16,16,0,0,1-10.94-3.79l2.8-3.19a12,12,0,0,0,8,2.91A7.91,7.91,0,0,0,173,147a3.55,3.55,0,0,0,1.7-3.08,4.65,4.65,0,0,0-.6-2.5,4.74,4.74,0,0,0-2.06-1.65,27.21,27.21,0,0,0-4.37-1.46Q163,137.1,161,135a7,7,0,0,1-2.06-5.19,6.66,6.66,0,0,1,1.35-4.07,8.82,8.82,0,0,1,3.74-2.83,13.57,13.57,0,0,1,5.36-1A16.12,16.12,0,0,1,174.68,122.76Z"/><path d="M208.26,115.42a4.38,4.38,0,0,0-1,3.16v4h7l-.55,3.9h-6.49v25.06h-5.06V126.49h-5.17v-3.9h5.17v-4a7.94,7.94,0,0,1,2.39-6,9.29,9.29,0,0,1,6.68-2.28,16.06,16.06,0,0,1,3.54.36,20.39,20.39,0,0,1,3.38,1.13l-1.59,3.68a12.35,12.35,0,0,0-5.06-1.1A4.47,4.47,0,0,0,208.26,115.42Z"/><path d="M241.35,138.81H222.88q.33,4.78,2.42,7a7,7,0,0,0,5.39,2.25,11.77,11.77,0,0,0,3.85-.6,15.53,15.53,0,0,0,3.68-1.92l2.2,3a16,16,0,0,1-10.11,3.63q-6,0-9.43-4t-3.38-10.88a20.59,20.59,0,0,1,1.46-8,12.54,12.54,0,0,1,4.18-5.47,10.59,10.59,0,0,1,6.4-2q5.77,0,8.85,3.79t3.08,10.5Q241.46,137.49,241.35,138.81Zm-4.89-4.07q0-4.29-1.7-6.54a6,6,0,0,0-5.11-2.25q-6.21,0-6.76,9.13h13.58Z"/><path d="M269.93,147.41a3.67,3.67,0,0,0,1.81,1.29l-1.15,3.52A7.73,7.73,0,0,1,267,151a5.78,5.78,0,0,1-2-3.08,9.72,9.72,0,0,1-8.63,4.34,9.26,9.26,0,0,1-6.76-2.42,8.44,8.44,0,0,1-2.47-6.32,8.3,8.3,0,0,1,3.33-7.09q3.33-2.47,9.43-2.47h4.45v-2.14q0-3.08-1.48-4.4a6.72,6.72,0,0,0-4.56-1.32,25.54,25.54,0,0,0-7.8,1.54l-1.26-3.68a29.15,29.15,0,0,1,10-2q5.11,0,7.64,2.5t2.53,7.12V144.8A4.53,4.53,0,0,0,269.93,147.41Zm-5.66-3.49v-6.65h-3.79q-8,0-8,5.94a5.43,5.43,0,0,0,1.26,3.9,4.94,4.94,0,0,0,3.74,1.32Q261.8,148.43,264.27,143.92Z"/><path d="M287.85,152.22a7.64,7.64,0,0,1-5.74-2.12A8.43,8.43,0,0,1,280,144V126.49H275v-3.9H280v-6.54l5.06-.6v7.15H292l-.55,3.9H285.1v17.26a5.32,5.32,0,0,0,.8,3.27,3.18,3.18,0,0,0,2.67,1,7.34,7.34,0,0,0,3.85-1.26l1.92,3.46A11.12,11.12,0,0,1,287.85,152.22Z"/><path d="M316.76,151.56l-.38-4.51a11,11,0,0,1-3.79,3.93,10.29,10.29,0,0,1-5.22,1.24,7.7,7.7,0,0,1-5.94-2.31,9.25,9.25,0,0,1-2.14-6.54V122.59h5.06v20.23q0,3,1,4.2a4.23,4.23,0,0,0,3.41,1.24q4.23,0,7.25-5V122.59h5.06v29Z"/><path d="M347,122.26l-.93,4.95a10.44,10.44,0,0,0-2.53-.33,5.38,5.38,0,0,0-4.34,2,14.69,14.69,0,0,0-2.58,6.16v16.54h-5.06v-29h4.34l.5,5.88a11,11,0,0,1,3.13-4.89,7,7,0,0,1,4.62-1.65A11.76,11.76,0,0,1,347,122.26Z"/><path d="M374,138.81H355.51q.33,4.78,2.42,7a7,7,0,0,0,5.39,2.25,11.76,11.76,0,0,0,3.85-.6,15.52,15.52,0,0,0,3.68-1.92l2.2,3a16,16,0,0,1-10.11,3.63q-6,0-9.43-4t-3.38-10.88a20.61,20.61,0,0,1,1.46-8,12.55,12.55,0,0,1,4.18-5.47,10.59,10.59,0,0,1,6.4-2q5.77,0,8.85,3.79t3.08,10.5Q374.09,137.49,374,138.81Zm-4.89-4.07q0-4.29-1.7-6.54a6,6,0,0,0-5.11-2.25q-6.21,0-6.76,9.13h13.58Z"/><path d="M386.57,145.68a3.67,3.67,0,0,1,1.1,2.69,3.76,3.76,0,0,1-1.1,2.72,3.68,3.68,0,0,1-2.75,1.13,3.62,3.62,0,0,1-2.69-1.13,3.75,3.75,0,0,1-1.1-2.72,3.75,3.75,0,0,1,3.79-3.79A3.73,3.73,0,0,1,386.57,145.68Zm-5-6.76-.6-25.23h5.61L386,138.92Z"/><rect class="cls-2" x="338.11" y="340.28" width="64.73" height="134.25"/><rect class="cls-3" x="455.58" y="340.28" width="64.73" height="134.25"/><rect class="cls-4" x="362.08" y="275.55" width="134.25" height="64.73"/><polygon class="cls-5" points="346.65 275.31 511.76 275.31 428.12 205.79 346.65 275.31"/><path class="cls-5" d="M232.07,474.53a33.17,33.17,0,0,1,66.27,0H338.1V401.8H192.31v72.72Z"/><path class="cls-6" d="M764.14,250.14H681.91C671.24,258.88,664,276,664,295.7a102,102,0,0,0,2.46,22.12s1.42,6.37,2.67,9.87a134.38,134.38,0,0,0,16.2,33.08,17.4,17.4,0,0,0,14.51,7.72h46.37a17.4,17.4,0,0,0,14.51-7.72,134.41,134.41,0,0,0,16.2-33.08s1.85-6,2.67-9.87A106.79,106.79,0,0,0,782,295.7C782,276,774.8,258.88,764.14,250.14Z"/><rect class="cls-7" x="681.91" y="233.26" width="82.23" height="16.89"/><path class="cls-8" d="M675.88,273.33a65.13,65.13,0,0,0-3.79,22.37,94.29,94.29,0,0,0,2.26,20.36c.36,1.63,1.51,6.42,2.39,8.89l0,.13,0,.13a126.2,126.2,0,0,0,15.23,31.08,9.27,9.27,0,0,0,7.76,4.1h46.37a9.27,9.27,0,0,0,7.77-4.1,126.27,126.27,0,0,0,15.22-31c.15-.47,1.77-5.77,2.47-9.11A98.38,98.38,0,0,0,774,295.7a65.13,65.13,0,0,0-3.79-22.37Z"/><line class="cls-9" x1="681.91" y1="238.88" x2="764.14" y2="238.88"/><line class="cls-9" x1="681.91" y1="244.51" x2="764.14" y2="244.51"/><path class="cls-10" d="M668,295.7c0-17.23,5.86-33,15.36-41.51m62.8,110.25H699.84"/><path class="cls-11" d="M619.18,185.19c.94-4.37,1-8.92,1.24-13.67,0-.71.07-1.42.12-2.14q1-15.1,2.1-30.2c1.13-15.92,5.83-36.42-2.19-50.81a32.91,32.91,0,0,0-4.88-6,29.8,29.8,0,0,1-7.45-13.68c-1.06-5.24,0-11.18,3.44-15s8.49-4.86,13.16-4.06,9,3.37,12.81,6.35a23.45,23.45,0,0,1,4.57,4.43c2.53,3.47,3.51,8.76,5.69,12.51,5.82,10.07,26.23,6.42,35.41,6.42h82.87c9.18,0,29.58,3.65,35.41-6.42,2.17-3.75,3.14-8.65,5.69-12.12a24,24,0,0,1,4.57-4.62c3.85-3,8.12-5.65,12.79-6.45s9.82.35,13.18,4,4.5,9.71,3.42,15a29.6,29.6,0,0,1-7.45,13.67,33.52,33.52,0,0,0-4.86,5.95c-8,14.39-3.32,34.89-2.2,50.81q1.07,15.1,2.12,30.2c.16,2.07.23,4.11.31,6.11a59.87,59.87,0,0,0,1,9.7l4.2,60.38c0,1.55,0,3.13.1,4.68.52,8.66,1.2,17.31,1.81,26q1.77,25.07,3.51,50.13c.45,6.32.75,12.67,1.34,19,1.94,21.16-7.86,39.94-21.18,54.68-8.63,9.56-19.25,17.64-24.54,29.77-5.9,13.57-3.94,29.47-1.84,44.32a8.92,8.92,0,0,1-8.21,2.12,14.27,14.27,0,0,1-8.33-5.45c-3.92-5.35-4.91-12.48-5.78-19.27q-1.48-11.74-3-23.49a17.05,17.05,0,0,0-1.82-6.75A13.4,13.4,0,0,0,761,416.8c-11.27-6.14-23.73-8-36.38-8.45-12.67.42-25.14,2.31-36.38,8.45a13.45,13.45,0,0,0-5.35,4.46,17.33,17.33,0,0,0-1.81,6.75q-1.51,11.74-3,23.49c-.85,6.79-1.86,13.92-5.78,19.27-2.76,3.78-7.53,6.14-11.75,5.59a8.28,8.28,0,0,1-4.77-2.26c2.08-14.84,4-30.74-1.86-44.32C648.67,417.65,638,409.58,629.4,400c-13.3-14.74-23.1-33.52-21.16-54.68.57-6.3.89-12.65,1.32-19q1.77-25.07,3.51-50.13c.61-8.66,1.3-17.31,1.82-26a42.57,42.57,0,0,0,0-6.39l4.3-58.68c-.31,1.46.21,3.24-.34,4.66"/><ellipse class="cls-12" cx="724.64" cy="164.89" rx="38.33" ry="42.73"/><path class="cls-13" d="M759,145.88a48,48,0,0,1,.26,4.88c0,23.6-17.16,42.73-38.33,42.73-15,0-28.05-9.66-34.33-23.72,2.17,21.3,18.38,37.85,38.07,37.85,21.17,0,38.33-19.13,38.33-42.73A46.58,46.58,0,0,0,759,145.88Z"/><path class="cls-14" d="M742.47,175.37c-2.38-2.65-6.4,1.17-4,3.8.28.31-4.09.3-4.48.18a10.48,10.48,0,0,1-3-1.38,7.22,7.22,0,0,1-3.39-6.64c.23-3.83.5-7.65.77-11.48,2.92-1.3,5-3.14,5-6.33,0-4.39-3.9-7.11-8.57-7.11h-.88c-4.67,0-8.57,2.72-8.57,7.11,0,3.19,2.06,5.51,5,6.81.27,3.82.53,7.41.77,11.24a7,7,0,0,1-3.39,6.52,10.34,10.34,0,0,1-3,1.32c-.4.12-4.76.1-4.48-.21,2.36-2.63-1.66-6.46-4-3.81-2.77,3.08-1.74,7.1,2.09,8.9s8.93.36,12.35-1.68a12.81,12.81,0,0,0,3.77-3.42A12.8,12.8,0,0,0,728,182.6c3.42,2,8.47,3.5,12.35,1.67S745.23,178.45,742.47,175.37Z"/><path class="cls-15" d="M716.3,126.22a13.55,13.55,0,0,0-9.88,3.6,26.28,26.28,0,0,0-5.79,5.63,20.73,20.73,0,0,0-3,9.28,6.15,6.15,0,0,0,.63,4.32,4.29,4.29,0,0,0,3.1,1.61c3.44.34,6.41-2.16,9.15-4.26,3.57-2.73,7.47-5,11.19-7.52,2.21-1.49,4.45-3.19,5.5-5.64s.39-5.82-2-6.9a7.33,7.33,0,0,0-3.14-.42C720.12,125.95,718.21,126.08,716.3,126.22Z"/><path class="cls-14" d="M765.15,108c-7,0-7,30.66,0,30.66C771.15,138.69,771.15,108,765.15,108Z"/><path class="cls-14" d="M681.15,108c-11,0-11,30.66,0,30.66C688.15,138.69,688.15,108,681.15,108Z"/><path class="cls-14" d="M766.15,108c-12,0-12,30.66,0,30.66C774.15,138.69,774.15,108,766.15,108Z"/><path class="cls-16" d="M662.15,252.18v23.57c0,31.82,29.68,55.67,61.49,55.67H723c31.82,0,51.11-23.85,51.11-55.67V252.18c0-9.57.34-18.76-9.23-18.76H684.36C674.79,233.42,662.15,242.61,662.15,252.18Z"/><rect class="cls-2" x="643.53" y="276.6" width="85.57" height="49.64" transform="translate(-12.12 573.58) rotate(-45)"/><path class="cls-17" d="M785.28,476.21a14.27,14.27,0,0,1-8.33-5.45c-3.92-5.35-4.91-12.48-5.78-19.27q-1.48-11.74-3-23.49a17.05,17.05,0,0,0-1.82-6.75A13.4,13.4,0,0,0,761,416.8c-11.27-6.14-23.73-8-36.38-8.45-12.67.42-25.14,2.31-36.38,8.45a13.45,13.45,0,0,0-5.35,4.46,17.33,17.33,0,0,0-1.81,6.75q-1.51,11.74-3,23.49c-.85,6.79-1.86,13.92-5.78,19.27-2.76,3.78-7.53,6.14-11.75,5.59a2.41,2.41,0,0,1,.21-.49,13.05,13.05,0,0,1,2.33-2.85,26.91,26.91,0,0,0,6.75-23.35,7.62,7.62,0,0,0,4,2.62q.76-12,.57-24c0-2.3,1.71-8,2.54-10.52a29.26,29.26,0,0,1,6.59-10.91c8.8-9.16,22.41-11.56,35.09-12.45,6.69-.47,13.65-.61,19.8,2.07,5.69,2.48,10.95,7.37,17.09,6.51a23.24,23.24,0,0,0,3.77,5.07l1.72-2.6c3.86,5,11.13,10.14,13.37,16,2.93,7.6,2.19,18.87,3.08,27,.71,6.51,1.46,13.09,3.65,19.29A41.67,41.67,0,0,0,785.28,476.21Z"/><path class="cls-12" d="M832.75,69.33c0,2.67-1.35,5.16-2.86,7.36-.52.76-1.06,1.51-1.65,2.22a31.52,31.52,0,0,1-2.57,2.92,13,13,0,0,1-5.42,3.7A5.73,5.73,0,0,1,814.2,84c-1.13-1.42-1.27-3.37-1.35-5.17-.23-4.76-.35-9.89,2.34-13.82a9.47,9.47,0,0,1,1.27-1.49,10.33,10.33,0,0,1,9.25-2.83A9.1,9.1,0,0,1,832.75,69.33Z"/><path class="cls-12" d="M637.82,78.84c-.09,1.81-.23,3.75-1.37,5.17a5.72,5.72,0,0,1-6.06,1.51,13.1,13.1,0,0,1-5.42-3.7c-.87-.89-1.68-1.81-2.46-2.78-.61-.76-1.2-1.54-1.75-2.36-1.51-2.2-2.81-4.69-2.85-7.36a9.1,9.1,0,0,1,7-8.63,9.53,9.53,0,0,1,4.69.17A10.58,10.58,0,0,1,635.46,65C638.17,69,638,74.09,637.82,78.84Z"/><path class="cls-18" d="M637.82,78.84c-.09,1.81-.23,3.75-1.37,5.17a5.72,5.72,0,0,1-6.06,1.51,13.1,13.1,0,0,1-5.42-3.7c-.87-.89-1.68-1.81-2.46-2.78a36.18,36.18,0,0,0,6.28-.23,6.28,6.28,0,0,0,4.08-1.67c1.25-1.44,1.06-3.61.68-5.47a41.58,41.58,0,0,0-3.91-10.81A10.58,10.58,0,0,1,635.46,65C638.17,69,638,74.09,637.82,78.84Z"/><path class="cls-18" d="M828.24,78.91a31.52,31.52,0,0,1-2.57,2.92,13,13,0,0,1-5.42,3.7A5.73,5.73,0,0,1,814.2,84c-1.13-1.42-1.27-3.37-1.35-5.17-.23-4.76-.35-9.89,2.34-13.82a9.47,9.47,0,0,1,1.27-1.49,41.05,41.05,0,0,0-2.64,8.16c-.38,1.86-.57,4,.68,5.47a6.28,6.28,0,0,0,4.08,1.67,35.59,35.59,0,0,0,7.07.17A21.75,21.75,0,0,1,828.24,78.91Z"/><path class="cls-11" d="M679.28,290.48c-4.23-4.75-8.43-9.51-12.65-14.28-6.28-7.09-12.88-15.05-12.52-24.06.15-3.61,1.85-7.5,5.33-9a10.94,10.94,0,0,1,.18-8.24l-36.84-20a43.36,43.36,0,0,1-5.56,8.32c0,4.56-1,9.1-.9,13.68.18,14.57,10.69,27.39,21.59,38.2q6.36,6.31,13.14,12.28c6.75,6,15,12,24.2,11.38,2.84-.2,6.13-1.66,6.15-4.27C681.4,292.95,680.3,291.65,679.28,290.48Z"/><path class="cls-19" d="M614.65,252.24c4.71,7.4,11.23,14.22,17.88,20.43q7.39,6.91,15.28,13.44c7.85,6.51,17.4,13.16,28.21,12.38a12.7,12.7,0,0,0,3.28-.68c-5.45-2.19-12.22-2.38-17-5.55-10.79-7.08-21.5-15.09-28.75-25.51-5.5-7.9-9.78-11.33-13-20.08-3.63-10-2.64-29.18-2.9-39"/><path class="cls-11" d="M767.86,290.64c4.29-4.58,8.56-9.17,12.84-13.78,6.37-6.84,13.09-14.54,13.17-23.55,0-3.61-1.42-7.56-4.69-9.22a11.34,11.34,0,0,0,.22-8.23l36.34-18.58a43,43,0,0,0,4.95,8.52c-.21,4.55.51,9.12.22,13.69-.86,14.54-11.57,26.94-22.56,37.32q-6.41,6.05-13.21,11.76c-6.77,5.69-14.94,11.44-23.79,10.44-2.72-.31-5.81-1.89-5.71-4.5C765.71,293,766.82,291.77,767.86,290.64Z"/><path class="cls-19" d="M835.36,248.87c-4.87,9.63-13.22,18.2-21.73,25.78q-7.43,6.62-15.32,12.84c-7.85,6.2-17.34,12.48-27.7,11.28a11.76,11.76,0,0,1-3.12-.8c6.35-2.36,13.92-3.27,19.49-7,10.95-7.36,22.24-15.6,29.56-26.52,5.77-8.61,10.87-16.83,14-26.32,2.5-7.66-.06-20.27.49-27.81"/><path class="cls-20" d="M783.73,67.75V63.14C783.73,32.16,757,7,724,7h0c-33,0-59.7,25.12-59.7,56.1v4.61Z"/><rect class="cls-21" x="652.72" y="67.75" width="142.61" height="13.17"/><path class="cls-21" d="M724,0a6,6,0,0,0-6.17,5.79V45.2a6.18,6.18,0,0,0,12.33,0V5.79A6,6,0,0,0,724,0Z"/><path class="cls-21" d="M685.95,13.68a6,6,0,0,0-6.17,5.79V45.2a6.18,6.18,0,0,0,12.33,0V19.47A6,6,0,0,0,685.95,13.68Z"/><path class="cls-21" d="M762.1,13.68a6,6,0,0,1,6.17,5.79V45.2a6.18,6.18,0,0,1-12.33,0V19.47A6,6,0,0,1,762.1,13.68Z"/></g></g></svg>