<svg id="Layer_1" data-name="Layer 1" xmlns="http://www.w3.org/2000/svg" viewBox="0 0 434 402.17"><defs><style>.cls-1{fill:#4d4d4d;}.cls-2{fill:#e0e0e0;}.cls-3{fill:#999;}.cls-4{fill:none;}.cls-5{opacity:0.29;}.cls-6{fill:#0288d1;}.cls-7{fill:#fff;}</style></defs><title>graphic-no-messages</title><rect class="cls-1" x="78.39" y="114.49" width="138" height="210" rx="12" ry="12"/><rect class="cls-2" x="97.39" y="130.49" width="100" height="160"/><circle class="cls-3" cx="147.39" cy="308.99" r="9.5"/><path class="cls-4" d="M330.65,82.66a17.92,17.92,0,0,0-12.62-5H171.8a17.89,17.89,0,0,0-12.62,5,15.55,15.55,0,0,0-5.35,11.75v20.08H90.39a12,12,0,0,0-12,12v186a12,12,0,0,0,12,12h114a12,12,0,0,0,12-12v-99H318a17.53,17.53,0,0,0,12.62-5.18A16.17,16.17,0,0,0,336,196.38v-102A15.57,15.57,0,0,0,330.65,82.66Z"/><polygon class="cls-5" points="215.72 311.32 190.88 283.82 153.84 247.29 177.97 203.56 202.11 159.82 215.72 199.92 215.72 311.32"/><path class="cls-6" d="M318,77.68a17.92,17.92,0,0,1,12.61,5A15.57,15.57,0,0,1,336,94.41v102a16.17,16.17,0,0,1-5.35,11.95A17.54,17.54,0,0,1,318,213.5H190.18l-36.35,33.86v-153a15.55,15.55,0,0,1,5.35-11.75,17.89,17.89,0,0,1,12.61-5Z"/><rect class="cls-7" x="175.39" y="95.49" width="135" height="13"/><rect class="cls-7" x="175.39" y="121.16" width="135" height="13"/><rect class="cls-7" x="175.39" y="146.82" width="135" height="13"/><rect class="cls-7" x="175.39" y="172.49" width="101" height="13"/></svg>