<svg xmlns="http://www.w3.org/2000/svg" viewBox="0 0 343.08 314.74"><defs><style>.cls-1{isolation:isolate;}.cls-2{fill:#e3e4e5;mix-blend-mode:multiply;}.cls-3{fill:#785f56;}.cls-4{fill:#604c44;}.cls-5{fill:#888686;}.cls-6{fill:#605e5e;}.cls-7{fill:#383636;}.cls-8{fill:#e0d9d9;}.cls-9{fill:#d1c6c6;}.cls-10{fill:#fff;}.cls-11{fill:#e6e7e8;}.cls-12{fill:#cec7c7;}.cls-13{fill:#b6abab;}.cls-14{fill:#676464;}.cls-15{fill:#d05444;}.cls-16{fill:#f5f4f4;}.cls-17{fill:#dcd5d5;stroke:#dcd5d5;stroke-miterlimit:10;}.cls-18{fill:#ebe9e9;}</style></defs><title>graphic-picture-frame-house</title><g class="cls-1"><g id="Layer_2" data-name="Layer 2"><g id="Layer_1-2" data-name="Layer 1"><path class="cls-2" d="M343.08,50.39H243.43L180.08,20.94a5.81,5.81,0,0,0,.07-.68,5.93,5.93,0,0,0-11.86,0,5.84,5.84,0,0,0,.07.68L105,50.39H5.37V314.74h337.7ZM169.91,24.31a5.88,5.88,0,0,0,8.62,0l56.09,26.08H113.82Z"/><rect class="cls-3" x="90.52" y="21.39" width="82.16" height="3.71" transform="translate(2.46 57.64) rotate(-24.93)"/><rect class="cls-3" x="204.25" y="-17.83" width="3.71" height="82.16" transform="translate(98.12 200.33) rotate(-65.06)"/><circle class="cls-4" cx="168.85" cy="5.93" r="5.93"/><rect class="cls-5" y="36.06" width="337.7" height="264.35"/><rect class="cls-6" x="8.59" y="43.33" width="320.52" height="249.81"/><polygon class="cls-7" points="329.11 43.33 304.66 66.46 33.04 66.46 8.59 43.33 329.11 43.33"/><polygon class="cls-7" points="8.59 293.14 33.04 270.01 304.66 270.01 329.11 293.14 8.59 293.14"/><rect class="cls-8" x="27.02" y="60.77" width="283.66" height="214.94"/><polygon class="cls-9" points="310.68 60.77 289.04 80.67 48.66 80.67 27.02 60.77 310.68 60.77"/><polygon class="cls-9" points="27.02 275.7 48.66 255.8 289.04 255.8 310.68 275.7 27.02 275.7"/><rect class="cls-10" x="48.49" y="80.67" width="240.72" height="175.13"/><polygon class="cls-11" points="56.3 86.36 289.21 86.36 289.21 80.67 48.49 80.67 48.49 255.8 56.3 255.8 56.3 86.36"/><rect class="cls-10" x="48.77" y="80.67" width="240.44" height="175.13"/><path class="cls-12" d="M123.63,128.09l.25,5.22.75,15.39a90.53,90.53,0,0,0,12.11-8.36V128.09Z"/><path class="cls-13" d="M124.63,148.7l.53,10.91,11.58-12.7v-6.56A90.53,90.53,0,0,1,124.63,148.7Z"/><rect class="cls-14" x="120.53" y="127.47" width="18.96" height="3.63"/><rect class="cls-15" x="162.02" y="194.22" width="30.06" height="2.53"/><path class="cls-12" d="M124.68,209.07H200.9V191.8c-25.93-9.24-51.42-19-76.22-31.07Z"/><path class="cls-13" d="M162.78,123.06l-38.11,37.61v.07c24.8,12.05,50.29,21.83,76.22,31.07V160.67Z"/><polygon class="cls-14" points="222.03 178.21 162.78 118.96 157.66 124.08 157.66 124.08 103.54 178.21 108.66 183.33 162.78 129.2 216.91 183.33 222.03 178.21"/><rect class="cls-14" x="135.19" y="175.87" width="18.15" height="33.2"/><rect class="cls-14" x="163.58" y="175.87" width="26.95" height="18.35"/><rect class="cls-16" x="165.48" y="177.59" width="23.15" height="14.91"/><line class="cls-17" x1="182.99" y1="185.65" x2="175.86" y2="189.48"/><line class="cls-17" x1="182.35" y1="182.18" x2="171.54" y2="187.99"/><line class="cls-17" x1="176.94" y1="180.6" x2="171.11" y2="183.74"/><circle class="cls-14" cx="162.78" cy="151.89" r="8.04"/><g id="_Group_" data-name="&lt;Group&gt;"><path class="cls-18" d="M167,147.64a12.2,12.2,0,0,0-8.67,8.16,6,6,0,1,0,8.67-8.16Z"/><path class="cls-16" d="M167,147.64a6,6,0,0,0-8.67,8.16A12.2,12.2,0,0,1,167,147.64Z"/></g><rect class="cls-12" x="149.34" y="191.69" width="2.01" height="5.06"/></g></g></g></svg>