<svg xmlns="http://www.w3.org/2000/svg" viewBox="0 0 491 90.5"><defs><style>.cls-1{fill:#182980;stroke:#fff;}.cls-2{fill:#f4f5f5;}.cls-3{fill:#fff;}.cls-4{fill:#ff0;}</style></defs><title>wayhome-logo-beta-text_1</title><g id="Layer_1" data-name="Layer 1"><rect class="cls-1" x="2.58" y="1.96" width="99.65" height="60.84" rx="6.51" ry="6.51"/><path class="cls-2" d="M51.23,24.46c-14.45.12-20-.67-18.16-2.57-1.87,1.9-2.75-3.66-2.87-18.12.12,14.45-.67,20-2.57,18.16,1.9,1.87-3.66,2.75-18.12,2.87,14.45-.12,20,.67,18.16,2.57,1.87-1.9,2.75,3.66,2.87,18.12-.12-14.45.67-20,2.57-18.16C31.21,25.47,36.77,24.59,51.23,24.46Z"/><path class="cls-3" d="M72.39,62.27V45.49H62.95L92.19,16.06l9.57,9.75V58.07s-1.24,4-3.72,4.21S72.39,62.27,72.39,62.27Z"/><rect class="cls-4" x="81.23" y="48.5" width="6.8" height="7.03" transform="translate(169.27 104.03) rotate(-180)"/><path class="cls-3" d="M195.15,5.9c-1.18,0-3.26.74-6.06,6.33L167.38,56c-1.45,2.88-2.62,6-4.79,6-1.36,0-2-.82-2.26-3L154.9,14.7,132.11,56c-2.17,4-3.35,6-5.88,6-1.18,0-2-.74-2.08-3.37l-1.72-48.5c-.09-3.45-.91-4.19-2.26-4.19-.9,0-1.45-.33-1.45-1.15,0-1.23,1.45-1.89,3.44-1.89h9.32c1.81,0,2.8.41,2.8,1.64,0,1-.63,1.4-2.17,1.4-1,0-1.63.66-1.63,2.14,0,.58.09,1.73.09,2.88l.9,37.49L155.26,5.9c1.9-3.37,2.8-3.78,4.25-3.78.81,0,1.72.57,2.08,3.45l5.25,42.83,17.64-38.06a7.15,7.15,0,0,0,.81-2.55c0-1.4-.63-1.89-1.54-1.89s-1.45-.25-1.45-.9c0-1.81,2.62-2.14,4.16-2.14h8.05c1.81,0,2.8.41,2.8,1.64C197.32,5.49,196.68,5.9,195.15,5.9Z"/><path class="cls-3" d="M221.55,53.5a5.38,5.38,0,0,0-.18,1.73c0,1,.18,2.14,2.17,2.14.63,0,1,.08,1,.82,0,2.06-5.34,3.78-7.51,3.78-1.63,0-3.07-.74-3.07-3.37a29,29,0,0,1,1.18-6.08l-.27-.08C210.42,58.85,204.45,62,198,62c-5.43,0-10.49-3.37-10.49-11.51,0-14.22,10.22-30.75,27-30.75,7.15,0,8.5,2.71,9.59,2.71,1.27,0,2.71-1.89,4.79-1.89.63,0,1.08.25,1.08,1.07a23.93,23.93,0,0,1-.9,3.95ZM213.86,23c-12.39,0-18.54,15.62-18.54,24.83,0,5.67,2.17,9.37,7.06,9.37,5.61,0,12.66-7.89,13.93-12.33l2.53-8.38A38.85,38.85,0,0,0,220.46,28C220.46,25.06,218.2,23,213.86,23Z"/><path class="cls-3" d="M268.84,28.18a9.54,9.54,0,0,0,.36-2.14c0-1.81-.81-2.06-1.81-2.06-.81,0-.9-.49-.9-1,0-1.73,2.71-2.06,4.07-2.06h5.88c1,0,1.18.41,1.18,1.23a15,15,0,0,1-.54,2.63l-8,29.1c-2.53,9.13-5.7,15.87-9,19.32A25.54,25.54,0,0,1,242.16,81c-8.86,0-13.57-2.55-13.57-7.48,0-2.88,1.45-5.43,4-5.43,1.9,0,2.53,2.22,3.89,5.26a7,7,0,0,0,6.6,4.36c6.6,0,9.23-2.63,12.21-6.5,3.35-4.36,5.25-12.74,7-18.41l-.27-.08c-3,3-9.23,9.13-16.91,9.13-5.43,0-8.14-2.14-8.14-6.66A32.27,32.27,0,0,1,238,48.82l5.52-20.64a12.54,12.54,0,0,0,.36-2.14c0-1.81-.81-2.06-1.81-2.06-.81,0-.9-.49-.9-1,0-1.73,2.71-2.06,4.07-2.06h5.88c1,0,1.18.41,1.18,1.23a15,15,0,0,1-.54,2.63L246.23,45.2a40.77,40.77,0,0,0-1.63,7.89c0,2.47.72,4.19,4.61,4.19,5.79,0,14.29-9.29,15.47-13.73Z"/><path class="cls-3" d="M322.47,33.28l-4.88,19.07A20.32,20.32,0,0,0,317,56c0,1.15.18,1.89,1.72,1.89,1.09,0,1.36.41,1.36.9,0,1.15-1.27,2.14-3.62,2.14H310.8a1.81,1.81,0,0,1-1.9-2.06,23.8,23.8,0,0,1,1-4.93l4.61-17.35a33.86,33.86,0,0,0,1.27-7.15c0-2-.63-3.86-3.8-3.86-6.24,0-14.74,7.73-16.55,14.8L292.08,53.5a15.56,15.56,0,0,0-.45,2.47c0,1.73.9,1.89,1.72,1.89s1,.49,1,.9c0,1.73-2.26,2.14-4.07,2.14h-8c-1.72,0-2.62-.66-2.62-2.06,0-.58.45-1,1.54-1,1.9,0,2.71-1.48,3.35-3.86L296.33,9a17.39,17.39,0,0,0,.36-2.63A1.31,1.31,0,0,0,295.34,5c-.81,0-1.18-.33-1.18-1,0-1.4,2.08-2.06,4-2.06h4.7c1.72,0,2.08.57,2.08,1.81a22.53,22.53,0,0,1-.81,3.53l-5.88,22.77h.36c5.7-5.84,12.93-9.78,18-9.78,4.07,0,6.78,1.64,6.78,6.49A36.63,36.63,0,0,1,322.47,33.28Z"/><path class="cls-3" d="M362.53,55.64a24.58,24.58,0,0,1-17,6.33c-5.25,0-14.29-2-14.29-13.89A30.93,30.93,0,0,1,341.1,25.8c5.25-4.85,11.58-6.08,17-6.08,5.25,0,14.29,2,14.29,13.89A29.24,29.24,0,0,1,362.53,55.64ZM355.66,23c-10.13,0-16.55,12.5-16.55,24.33,0,3.37,1.09,11.35,8.86,11.35,10.13,0,16.55-12.08,16.55-24.75C364.52,29.83,363.62,23,355.66,23Z"/><path class="cls-3" d="M440.13,33.2l-4.88,19.15a22.72,22.72,0,0,0-.72,3.62c0,1.23.27,1.89,1.81,1.89,1.09,0,1.36.41,1.36.9,0,1.15-1.27,2.14-3.62,2.14h-5.61a1.81,1.81,0,0,1-1.9-2.06,23.8,23.8,0,0,1,1-4.93l4.52-17.18a37.3,37.3,0,0,0,1.45-7.56c0-1.73-.36-3.7-3.53-3.7-7.6,0-14.65,10.93-15.74,15.37L411.09,53.5a15.66,15.66,0,0,0-.45,2.47c0,1.73.9,1.89,1.72,1.89s1,.49,1,.9c0,1.73-2.26,2.14-4.07,2.14h-8c-1.72,0-2.62-.66-2.62-2.06,0-.58.45-1,1.54-1,1.9,0,2.71-1.56,3.35-3.94l4.07-15.62A42.68,42.68,0,0,0,409.38,29c0-2.88-1.27-3.53-3.62-3.53-5.43,0-13.39,8-14.83,13.65l-3.8,14.39a15.66,15.66,0,0,0-.45,2.47c0,1.73.9,1.89,1.72,1.89s1,.49,1,.9c0,1.73-2.26,2.14-4.07,2.14h-8c-1.72,0-2.62-.66-2.62-2.06,0-.58.45-1,1.54-1,1.9,0,2.71-1.56,3.35-3.94l6.6-25.73a12.32,12.32,0,0,0,.45-2.8,1.31,1.31,0,0,0-1.36-1.4c-.81,0-1.18-.33-1.18-1,0-1.4,2.08-2.06,4-2.06h4.7c1.72,0,2.26.25,2.26,1.4,0,1.48-1.08,4.6-2.26,8h.36c6.24-7.89,12.57-10.11,16.82-10.11,5.52,0,6.78,3,6.78,6.91a17.12,17.12,0,0,1-.63,4.44h.36c6.06-7.89,12.57-11.34,17.18-11.34,5.06,0,7.42,2.3,7.42,6.33A28.48,28.48,0,0,1,440.13,33.2Z"/><path class="cls-3" d="M467.25,40.35c-3.89.49-9.77.82-9.77.82a23.63,23.63,0,0,0-.63,5.67c0,5.76,2.8,11,9.14,11,4.52,0,8.41-2.47,11.67-5.59a3.41,3.41,0,0,1,2-1.15,1.57,1.57,0,0,1,1.72,1.48,3,3,0,0,1-1,1.81c-4,4.6-9.13,7.56-17.82,7.56C458.66,62,449,61.31,449,47.5c0-15,11.12-27.79,27.22-27.79,7.51,0,10.94,2.3,10.94,6.74C487.15,32.21,480.91,38.7,467.25,40.35ZM473.49,23c-8.5,0-13.75,10.28-15.1,15.21,0,0,4.7-.25,7.6-.57,10.94-1.32,13.57-6.25,13.57-9.37C479.55,24.4,476.84,23,473.49,23Z"/><path class="cls-3" d="M430.31,87.43h-4.8c-.36,0-.8,0-.8-.52,0-.21,0-.31.25-.31s.68-.18.68-1.36V71c0-1.18-.38-1.33-.68-1.33s-.25-.16-.25-.34c0-.5.44-.52.8-.52h4.89c1.69,0,4.61.34,4.61,3.92,0,2.58-1.29,4.15-3.09,4.73v.1a4.23,4.23,0,0,1,3.79,4.52C435.71,85.86,433.13,87.43,430.31,87.43ZM429.59,70c-1.42,0-2,0-2,1.18v6h1.86A3.31,3.31,0,0,0,433,73.59C433,70.14,431.22,70,429.59,70Zm.08,8.28h-2.09v6.92c0,.86.3,1,1.33,1h1.29c1.16,0,3.34-.6,3.34-4.2C433.55,78.66,431.22,78.26,429.68,78.26Z"/><path class="cls-3" d="M448.06,85.6c-.32,1.44-.42,1.83-1.59,1.83h-7.09c-.32,0-.8,0-.8-.52,0-.21.08-.31.27-.31s.68-.21.68-1.38V71c0-1.18-.36-1.36-.66-1.36s-.3-.13-.3-.31c0-.5.47-.52.82-.52h6.32c.27,0,.82-.08,1.18-.08.63,0,.66.68.66,1.51s0,3-.49,3-.55-1.33-.82-2a2,2,0,0,0-2-1.18h-2.07c-.47,0-.66.11-.66.84v6.4l3.09-.26c.25,0,1-.1,1.21-.1.59,0,.61.47.61.91,0,.76-.51.76-.8.76s-1-.05-1.76-.1l-2.35-.13v6.92c0,.84.06.91.4.91h1.95a5.14,5.14,0,0,0,1.95-.29c1-.47,1.31-1.2,1.78-2.32.17-.42.23-.52.49-.52s.3.34.3.52A9.11,9.11,0,0,1,448.06,85.6Z"/><path class="cls-3" d="M461,73.2c-.51,0-.53-1.33-.8-2A2,2,0,0,0,458.15,70h-1.27V85.24c0,1.17.38,1.36.68,1.36s.27.1.27.31c0,.5-.49.52-.8.52h-2.26c-.32,0-.8,0-.8-.52,0-.21,0-.31.3-.31s.66-.18.66-1.36V70h-1.27a2,2,0,0,0-2,1.18c-.27.71-.3,2-.8,2s-.49-2.22-.49-3,0-1.51.61-1.51c.38,0,.91.08,1.18.08h7.57c.25,0,.8-.08,1.16-.08.63,0,.63.68.63,1.51S461.49,73.2,461,73.2Z"/><path class="cls-3" d="M474.05,87.43h-2.62c-.47,0-.66-.26-.66-.5s.11-.34.32-.34c.4,0,.55-.18.55-.6a3.8,3.8,0,0,0-.13-1l-1-4.49h-5L464.32,85a3.58,3.58,0,0,0-.13.81c0,.5.13.76.47.76s.38.05.38.31-.27.52-.72.52h-1.78c-.34,0-.8,0-.8-.52,0-.21.08-.31.3-.31s.7-.34,1-1.51l4-14a3.08,3.08,0,0,0,.11-.68.55.55,0,0,0-.32-.57.52.52,0,0,1-.34-.44c0-.5.44-.57.87-.57H469c.8,0,.78.42,1.25,2.27l3.43,14c.3,1.17.49,1.51.76,1.51s.38.05.38.23C474.77,87.27,474.48,87.43,474.05,87.43Zm-5.88-16.84-2.35,8.75h4.38Z"/></g></svg>