<svg xmlns="http://www.w3.org/2000/svg" xmlns:xlink="http://www.w3.org/1999/xlink" version="1.2" baseProfile="tiny" x="0px" y="0px" viewBox="0 0 100 125" xml:space="preserve"><path d="M85.893,36.39l-1.091-1.658c-0.837-1.24-2.361-1.78-3.789-1.34c-0.871,0.267-1.568,0.853-1.979,1.608h-6.977  c0.388-1.493,0.422-3.064,0.093-4.63c-0.809-3.851-3.689-6.77-7.516-7.619c-2.807-0.626-5.631-0.082-7.951,1.525  c-2.026,1.404-3.462,3.513-4.033,5.884c-0.7,0.212-1.328,0.628-1.803,1.211c-0.719,0.882-1,2.03-0.769,3.15  c0.41,1.99,1.41,3.784,2.845,5.168c-0.361,0.885-0.55,1.836-0.55,2.811c0,0.856,0.087,1.692,0.252,2.5H5v19.65  c0,1.891,0.264,3.772,0.783,5.591c1.291,4.519,4.058,8.301,7.679,10.91L10,95h10l10-10h40l10,10h10l-3.462-13.849  c3.621-2.609,6.388-6.392,7.679-10.91C94.737,68.422,95,66.541,95,64.65V45h-7.892C87.68,42.199,87.294,39.216,85.893,36.39z   M57.423,31.79c0.193-1.369,0.961-2.61,2.107-3.404c1.16-0.805,2.588-1.072,4.02-0.754c1.886,0.419,3.306,1.862,3.706,3.767  c0.237,1.127,0.109,2.25-0.369,3.246c-0.56,1.162-0.483,2.508,0.204,3.601C67.782,39.344,68.97,40,70.268,40h9.977  c0.576,0,1.118-0.145,1.593-0.4c0.669,1.836,0.697,3.71,0.101,5.4H57.811c-0.278-0.783-0.438-1.622-0.438-2.5  c0-0.633,0.246-1.241,0.693-1.712l2.225-2.345l-2.829-1.563c-0.937-0.518-1.672-1.309-2.116-2.251  C56.436,34.099,57.245,33.051,57.423,31.79z M17.929,90h-1.525l1.597-6.389c1.61,0.625,3.31,1.048,5.071,1.246L17.929,90z   M82.071,90l-5.143-5.143c1.761-0.198,3.46-0.622,5.071-1.246L83.596,90H82.071z M87.5,64.65c0,1.194-0.166,2.382-0.494,3.53  c-1.568,5.487-6.649,9.32-12.356,9.32h-49.3c-5.707,0-10.788-3.833-12.356-9.32c-0.328-1.148-0.494-2.336-0.494-3.53V62.5h75V64.65z   M87.5,52.5v5h-75v-5H87.5z"/><path d="M35,30c4.136,0,7.5-3.364,7.5-7.5S39.136,15,35,15s-7.5,3.364-7.5,7.5S30.864,30,35,30z M35,20c1.378,0,2.5,1.122,2.5,2.5  S36.378,25,35,25s-2.5-1.122-2.5-2.5S33.622,20,35,20z"/><path d="M23.75,5c-3.446,0-6.25,2.804-6.25,6.25s2.804,6.25,6.25,6.25S30,14.696,30,11.25S27.196,5,23.75,5z M23.75,12.5  c-0.689,0-1.25-0.561-1.25-1.25S23.061,10,23.75,10S25,10.561,25,11.25S24.439,12.5,23.75,12.5z"/><path d="M23.75,42.5c3.446,0,6.25-2.804,6.25-6.25S27.196,30,23.75,30s-6.25,2.804-6.25,6.25S20.304,42.5,23.75,42.5z M23.75,35  c0.689,0,1.25,0.561,1.25,1.25s-0.561,1.25-1.25,1.25s-1.25-0.561-1.25-1.25S23.061,35,23.75,35z"/></svg>
