<svg xmlns="http://www.w3.org/2000/svg" xmlns:xlink="http://www.w3.org/1999/xlink" version="1.1" x="0px" y="0px" viewBox="0 0 100 125" enable-background="new 0 0 100 100" xml:space="preserve"><polygon points="12.5,53.75 12.5,35 5,35 5,70 12.5,70 12.5,60 35,60 35,53.75 "/><rect x="87.5" y="47.5" width="7.5" height="22.5"/><path d="M77.828,45H44.671c-3.27,0-5.921,2.798-5.921,6.25V60h45v-8.75C83.75,47.798,81.098,45,77.828,45z"/><path d="M28.438,42.5h-5.625c-3.625,0-6.562,2.686-6.562,6v0.429V50H35v-1.071V48.5C35,45.186,32.062,42.5,28.438,42.5z"/></svg>
