<svg xmlns="http://www.w3.org/2000/svg" xmlns:xlink="http://www.w3.org/1999/xlink" version="1.1" x="0px" y="0px" viewBox="0 0 100 125" enable-background="new 0 0 100 100" xml:space="preserve"><g><g><path fill="#000000" d="M52.34,90.23c-21.63,0-37.943-15.14-37.943-35.215c0-14.121,10.426-28.417,20.235-34.7    c4.495-2.877,13.881-3.101,16.654-3.101c3.42,0,11.828,0.291,16.033,2.982C78.449,27.319,90.28,41.944,90.28,55.016    C90.28,75.091,73.967,90.23,52.34,90.23z M51.285,22.222c-6.189,0-11.796,0.929-13.955,2.309    c-8.81,5.646-17.926,18.59-17.926,30.485c0,17.505,13.851,30.208,32.936,30.208c19.085,0,32.933-12.703,32.933-30.208    c0-10.882-10.498-24.107-20.651-30.604C62.573,23.102,57.216,22.222,51.285,22.222z"/></g><g><path fill="#000000" d="M20.32,42.577l-6.847-5.931c-2.503-2.169-4.014-5.185-4.248-8.488c-0.236-3.304,0.831-6.502,3-9.003    l5.187-5.98c4.482-5.161,12.328-5.728,17.492-1.248l7.48,6.479c0.172,0.149,0.334,0.296,0.484,0.442l-3.5,3.576l-0.275-0.247    l-7.467-6.468c-3.083-2.669-7.758-2.337-10.431,0.746l-5.188,5.979c-1.294,1.49-1.93,3.396-1.788,5.367    c0.139,1.969,1.04,3.768,2.532,5.062l6.847,5.931L20.32,42.577z"/></g><g><path fill="#000000" d="M84.517,40.756l-3.283-3.782l4.22-3.654c3.077-2.668,3.412-7.346,0.741-10.429l-5.188-5.975    c-2.676-3.09-7.354-3.414-10.437-0.748l-7.478,6.479c-0.252,0.219-0.483,0.445-0.694,0.685l-3.768-3.294    c0.36-0.414,0.757-0.805,1.189-1.176l7.472-6.477c5.167-4.482,13.015-3.913,17.497,1.251l5.188,5.975    c4.477,5.169,3.916,13.017-1.251,17.494L84.517,40.756z"/></g><g><circle fill="#000000" cx="38.045" cy="40.385" r="2.635"/></g><g><path fill="#000000" d="M64.395,37.75c-1.456,0-2.635,1.179-2.635,2.635c0,1.457,1.179,2.635,2.635,2.635    c1.452,0,2.636-1.178,2.636-2.635C67.03,38.929,65.847,37.75,64.395,37.75z"/></g><g><ellipse fill="#000000" cx="51.22" cy="53.56" rx="5.27" ry="2.635"/></g><g><path fill="#000000" d="M40.235,68.388c-1.773,0-3.286-0.609-4.379-1.765c-1.153-1.218-1.763-3.001-1.763-5.159    c0-0.729,0.589-1.317,1.317-1.317c0.729,0,1.317,0.589,1.317,1.317c0,1.472,0.36,2.63,1.042,3.348    c0.736,0.779,1.747,0.941,2.465,0.941c4.037,0,9.667-4.64,9.667-12.193c0-0.729,0.589-1.317,1.316-1.317    c0.73,0,1.317,0.589,1.317,1.317C52.536,62.748,45.374,68.388,40.235,68.388z"/></g><g><path fill="#000000" d="M62.203,68.388c-5.136,0-12.301-5.64-12.301-14.828c0-0.729,0.589-1.317,1.316-1.317    c0.73,0,1.317,0.589,1.317,1.317c0,7.554,5.632,12.193,9.667,12.193c0.72,0,1.729-0.162,2.465-0.941    c0.685-0.718,1.045-1.876,1.045-3.348c0-0.729,0.586-1.317,1.317-1.317c0.726,0,1.317,0.589,1.317,1.317    c0,2.158-0.613,3.941-1.766,5.159C65.491,67.778,63.979,68.388,62.203,68.388z"/></g><g><path fill="#000000" d="M51.219,81.225c-4.937,0-8.894-6.353-9.206-14.774c-0.026-0.729,0.543-1.338,1.269-1.366    c0.018,0,0.034,0,0.049,0c0.705,0,1.289,0.559,1.317,1.269c0.247,6.749,3.196,12.237,6.571,12.237    c3.378,0,6.321-5.488,6.568-12.237c0.026-0.726,0.53-1.302,1.364-1.269c0.726,0.028,1.297,0.638,1.271,1.366    C60.113,74.872,56.156,81.225,51.219,81.225z"/></g><g><path fill="#000000" d="M51.219,73.32c-0.727,0-1.316-0.589-1.316-1.317V58.829c0-0.729,0.589-1.317,1.316-1.317    c0.73,0,1.317,0.589,1.317,1.317v13.174C52.536,72.731,51.949,73.32,51.219,73.32z"/></g></g></svg>
