<svg xmlns:dc="http://purl.org/dc/elements/1.1/" xmlns:cc="http://creativecommons.org/ns#" xmlns:rdf="http://www.w3.org/1999/02/22-rdf-syntax-ns#" xmlns:svg="http://www.w3.org/2000/svg" xmlns="http://www.w3.org/2000/svg" xmlns:sodipodi="http://sodipodi.sourceforge.net/DTD/sodipodi-0.dtd" xmlns:inkscape="http://www.inkscape.org/namespaces/inkscape" version="1.1" x="0px" y="0px" viewBox="0 0 100 125"><g transform="translate(0,-952.36218)"><path style="font-size:medium;font-style:normal;font-variant:normal;font-weight:normal;font-stretch:normal;text-indent:0;text-align:start;text-decoration:none;line-height:normal;letter-spacing:normal;word-spacing:normal;text-transform:none;direction:ltr;block-progression:tb;writing-mode:lr-tb;text-anchor:start;baseline-shift:baseline;opacity:1;color:#FFFFFF;fill:#FFFFFF;fill-opacity:1;stroke:none;stroke-width:4;marker:none;visibility:visible;display:inline;overflow:visible;enable-background:accumulate;font-family:Sans;-inkscape-font-specification:Sans" d="m 49.766182,960.37455 a 1.9995118,1.9999055 0 0 0 -1.218331,0.59366 L 6.5623013,1003.9618 a 1.9995118,1.9999055 0 0 0 1.4370054,3.4058 l 10.9962153,0 0,34.9949 a 1.9995118,1.9999055 0 0 0 1.999312,1.9997 l 57.980045,0 a 1.9995118,1.9999055 0 0 0 1.999312,-1.9997 l 0,-34.9949 10.996215,0 a 1.9995118,1.9999055 0 0 0 1.437005,-3.4058 L 51.421862,960.96821 a 1.9995118,1.9999055 0 0 0 -1.65568,-0.59366 z m 0.218674,4.84303 37.268423,38.15062 -8.2784,0 a 1.9995118,1.9999055 0 0 0 -1.999312,1.9997 l 0,34.9949 -16.994151,0 0,-9.9985 c 0,-1.5451 -0.677884,-2.8587 -1.68692,-3.9683 -1.009035,-1.1094 -2.494074,-2.0309 -4.311016,-2.0309 l -7.997247,0 c -1.816942,0 -3.301981,0.9215 -4.311017,2.0309 -1.009035,1.1096 -1.686919,2.4232 -1.686919,3.9683 l 0,9.9985 -16.994151,0 0,-34.9949 a 1.9995118,1.9999055 0 0 0 -1.999312,-1.9997 l -8.278401,0 37.268423,-38.15062 z m 0,17.15373 c -11.018213,0 -19.993119,8.97666 -19.993119,19.99709 0,11.0204 8.974906,19.997 19.993119,19.997 11.018214,0 19.993119,-8.9766 19.993119,-19.997 0,-11.02043 -8.974905,-19.99709 -19.993119,-19.99709 z m 0,3.99941 c 8.857197,0 15.994495,7.13869 15.994495,15.99768 0,8.8589 -7.137298,15.9976 -15.994495,15.9976 -8.857196,0 -15.994495,-7.1387 -15.994495,-15.9976 0,-8.85899 7.137299,-15.99768 15.994495,-15.99768 z m 0.874699,3.96817 a 1.9995113,1.999905 0 0 0 -1.374527,3.34325 l 5.997936,6.68656 -15.494667,0 a 1.9995113,1.999905 0 0 0 -0.187436,0 2.0015072,2.0019013 0 1 0 0.187436,3.9994 l 15.494667,0 -5.997936,6.6552 a 2.0028033,2.0031976 0 1 0 2.998968,2.6559 l 8.996904,-9.9985 a 1.9995113,1.999905 0 0 0 0,-2.6559 l -8.996904,-9.99852 a 1.9995113,1.999905 0 0 0 -1.624441,-0.68739 z m -4.873322,38.02571 7.997247,0 c 0.398297,0 0.906821,0.2386 1.343288,0.7185 0.436467,0.4799 0.656024,1.1851 0.656024,1.2812 l 0,9.9985 -11.995871,0 0,-9.9985 c 0,-0.096 0.219557,-0.8013 0.656024,-1.2812 0.436467,-0.4799 0.94499,-0.7185 1.343288,-0.7185 z"/></g></svg>
