<svg xmlns="http://www.w3.org/2000/svg" xmlns:xlink="http://www.w3.org/1999/xlink" version="1.1" x="0px" y="0px" viewBox="0 0 100 125" enable-background="new 0 0 100 100" xml:space="preserve"><g><path d="M51.789,97.958h-3.46c-18.117,0-33.369-7.816-35.944-18.291C12.146,79.431,12,79.104,12,78.743V56.438   c0-0.277,0.088-0.534,0.237-0.747c1.215-11.01,7.279-21.036,16.43-27.272c-2.948-2.37-4.716-5.976-4.716-9.817   c0-6.945,5.651-12.595,12.595-12.595c1.261,0,2.504,0.189,3.71,0.563C42.638,3.691,46.195,2,49.954,2   c3.758,0,7.313,1.691,9.695,4.57c1.208-0.374,2.45-0.563,3.711-0.563c6.942,0,12.594,5.649,12.594,12.595   c0,3.789-1.732,7.364-4.622,9.736c10.547,7.098,16.786,18.752,16.786,31.562c0,0.171-0.051,16.63-0.213,18.87   c-0.003,0.071-0.01,0.146-0.022,0.218C85.812,89.802,70.296,97.958,51.789,97.958z M14.595,78.029   c0.093,0.139,0.158,0.297,0.191,0.469c1.809,9.458,16.542,16.865,33.543,16.865h3.46c17.001,0,31.734-7.407,33.543-16.865   c0.107-0.999,0.191-16.575,0.191-18.599c0-12.554-6.431-23.919-17.202-30.404c-0.396-0.235-0.632-0.663-0.629-1.122   c0.004-0.46,0.251-0.883,0.649-1.112c3.097-1.784,5.018-5.104,5.018-8.659c0-5.515-4.485-10-9.999-10   c-1.261,0-2.5,0.239-3.688,0.712c-0.557,0.222-1.193,0.03-1.54-0.46c-1.876-2.667-4.932-4.259-8.178-4.259   s-6.306,1.592-8.179,4.259c-0.347,0.49-0.982,0.682-1.543,0.46c-1.186-0.473-2.426-0.712-3.687-0.712c-5.514,0-10,4.485-10,10   c0,3.604,1.959,6.942,5.109,8.715c0.402,0.226,0.653,0.648,0.661,1.109c0.008,0.462-0.23,0.892-0.626,1.131   c-9.566,5.805-15.896,15.899-16.934,27.004c-0.018,0.188-0.074,0.362-0.162,0.517V78.029z"/></g><g><path d="M42.803,66.845c0,0,2.754,4.784,7.726,4.784c2.745,0,4.834-1.469,4.834-3.979c0-5.876-15.826-5.164-15.826-16.065   c0-4.737,3.742-8.148,8.908-8.955v-4.405h4.215v4.405c3.604,0.475,7.868,2.37,7.868,6.445v3.129h-5.595v-1.518   c0-1.565-1.987-2.606-4.217-2.606c-2.84,0-4.925,1.422-4.925,3.411c0,6.02,15.827,4.548,15.827,15.969   c0,4.693-3.509,8.768-8.959,9.572v4.406h-4.215v-4.359c-6.917-0.945-9.949-6.635-9.949-6.635L42.803,66.845z"/></g></svg>
