<svg xmlns:dc="http://purl.org/dc/elements/1.1/" xmlns:cc="http://creativecommons.org/ns#" xmlns:rdf="http://www.w3.org/1999/02/22-rdf-syntax-ns#" xmlns:svg="http://www.w3.org/2000/svg" xmlns="http://www.w3.org/2000/svg" xmlns:sodipodi="http://sodipodi.sourceforge.net/DTD/sodipodi-0.dtd" xmlns:inkscape="http://www.inkscape.org/namespaces/inkscape" version="1.1" x="0px" y="0px" viewBox="0 0 100 125"><g transform="translate(0,-952.36218)"><path style="font-size:medium;font-style:normal;font-variant:normal;font-weight:normal;font-stretch:normal;text-indent:0;text-align:start;text-decoration:none;line-height:normal;letter-spacing:normal;word-spacing:normal;text-transform:none;direction:ltr;block-progression:tb;writing-mode:lr-tb;text-anchor:start;baseline-shift:baseline;opacity:1;color:#000000;fill:#000000;fill-opacity:1;stroke:none;stroke-width:6;marker:none;visibility:visible;display:inline;overflow:visible;enable-background:accumulate;font-family:Sans;-inkscape-font-specification:Sans" d="M 86,5 C 85.232377,5 84.536313,5.2928596 84.009201,5.7708296 83.64272,6.1031437 8.0917315,89.650454 7.7573806,90.024132 7.2873718,90.549424 7,91.239603 7,92 c 0,1.656854 1.3431457,3 3,3 0.772386,0 76,0 76,0 1.570753,-1.57e-4 2.999843,-1.429247 3,-3 C 89,92 89,8.3555333 89,8 89,6.3431457 87.656854,5 86,5 z M 83,15.78125 83,30 78,30 c -1.662,0 -3,1.338 -3,3 0,1.662 1.338,3 3,3 l 5,0 0,6 -3,0 c -1.662,0 -3,1.338 -3,3 0,1.662 1.338,3 3,3 l 3,0 0,6 -5,0 c -1.662,0 -3,1.338 -3,3 0,1.662 1.338,3 3,3 l 5,0 0,6 -3,0 c -1.662,0 -3,1.338 -3,3 0,1.662 1.338,3 3,3 l 3,0 0,6 -5,0 c -1.662,0 -3,1.338 -3,3 0,1.662 1.338,3 3,3 l 5,0 0,5 -66.25,0 z m -16.09375,33.8125 c -0.81432,0.02197 -1.613441,0.39258 -2.15625,1 L 44.75,73 c -0.768144,0.859174 -0.972265,2.179969 -0.499326,3.230947 C 44.723614,77.281924 45.847525,78.005104 47,78 l 20,0 c 1.570753,-1.57e-4 2.999843,-1.429247 3,-3 l 0,-22.40625 c 6.17e-4,-1.602494 -1.492034,-3.049913 -3.09375,-3 z M 64,60.46875 64,72 53.71875,72 z" transform="translate(0,952.36218)"/></g></svg>
